<svg width="16" height="18" viewBox="0 0 16 18" fill="none" xmlns="http://www.w3.org/2000/svg">
<path d="M2.37189 17.0803C2.7316 16.8749 2.85669 16.4168 2.6513 16.0571C2.44591 15.6974 1.98781 15.5723 1.62811 15.7777L2.37189 17.0803ZM1 17H0.25C0.25 17.2673 0.392273 17.5144 0.62345 17.6486C0.854627 17.7828 1.13976 17.7838 1.37189 17.6513L1 17ZM1 1L1.37189 0.348697C1.13976 0.21615 0.854627 0.217171 0.62345 0.351378C0.392273 0.485585 0.25 0.732691 0.25 1L1 1ZM1.62811 2.2223C1.98781 2.42769 2.44591 2.3026 2.6513 1.94289C2.85669 1.58319 2.7316 1.12509 2.37189 0.919697L1.62811 2.2223ZM1.40798 15.9686C1.15368 16.2955 1.21259 16.7667 1.53955 17.021C1.86652 17.2753 2.33772 17.2164 2.59202 16.8894L1.40798 15.9686ZM10.592 6.60345C10.8463 6.27648 10.7874 5.80528 10.4604 5.55098C10.1335 5.29668 9.66228 5.35559 9.40798 5.68255L10.592 6.60345ZM1.62792 15.7778C1.26828 15.9833 1.14331 16.4414 1.3488 16.8011C1.5543 17.1607 2.01243 17.2857 2.37208 17.0802L1.62792 15.7778ZM10.3721 12.5092C10.7317 12.3037 10.8567 11.8456 10.6512 11.4859C10.4457 11.1263 9.98757 11.0013 9.62792 11.2068L10.3721 12.5092ZM10.3721 5.49181C10.0124 5.28631 9.55431 5.41127 9.34881 5.77091C9.14331 6.13055 9.26827 6.58869 9.62791 6.79419L10.3721 5.49181ZM15 9L15.3721 9.65119C15.6058 9.51766 15.75 9.26915 15.75 9C15.75 8.73085 15.6058 8.48234 15.3721 8.34881L15 9ZM9.62791 11.2058C9.26827 11.4113 9.14331 11.8694 9.34881 12.2291C9.55431 12.5887 10.0124 12.7137 10.3721 12.5082L9.62791 11.2058ZM9.62786 6.79416C9.98749 6.99969 10.4456 6.87477 10.6512 6.51514C10.8567 6.15551 10.7318 5.69736 10.3721 5.49184L9.62786 6.79416ZM2.37214 0.919838C2.01251 0.714311 1.55436 0.839234 1.34884 1.19886C1.14331 1.55849 1.26823 2.01664 1.62786 2.22216L2.37214 0.919838ZM2.59202 1.11055C2.33772 0.783589 1.86652 0.724681 1.53955 0.97898C1.21259 1.23328 1.15368 1.70448 1.40798 2.03145L2.59202 1.11055ZM9.40798 12.3174C9.66228 12.6444 10.1335 12.7033 10.4604 12.449C10.7874 12.1947 10.8463 11.7235 10.592 11.3966L9.40798 12.3174ZM1.62811 15.7777L0.628106 16.3487L1.37189 17.6513L2.37189 17.0803L1.62811 15.7777ZM1.75 17V1H0.25V17H1.75ZM0.628106 1.6513L1.62811 2.2223L2.37189 0.919697L1.37189 0.348697L0.628106 1.6513ZM2.59202 16.8894L10.592 6.60345L9.40798 5.68255L1.40798 15.9686L2.59202 16.8894ZM2.37208 17.0802L10.3721 12.5092L9.62792 11.2068L1.62792 15.7778L2.37208 17.0802ZM9.62791 6.79419L14.6279 9.65119L15.3721 8.34881L10.3721 5.49181L9.62791 6.79419ZM14.6279 8.34881L9.62791 11.2058L10.3721 12.5082L15.3721 9.65119L14.6279 8.34881ZM10.3721 5.49184L2.37214 0.919838L1.62786 2.22216L9.62786 6.79416L10.3721 5.49184ZM1.40798 2.03145L9.40798 12.3174L10.592 11.3966L2.59202 1.11055L1.40798 2.03145Z" fill="#141414"/>
</svg>
